<svg width="120" height="120" viewBox="0 0 120 120" fill="none" xmlns="http://www.w3.org/2000/svg">
<rect width="120" height="120" rx="50" fill="white"/>
<path d="M60 120C93.2502 120 120 93.2502 120 60C120 26.7498 93.2502 0 60 0C26.7498 0 0 26.7498 0 60C0 93.2502 26.7498 120 60 120Z" fill="#2775CA"/>
<path d="M76.4998 69.4998C76.4998 60.75 71.2498 57.75 60.7498 56.5002C53.2498 55.5 51.7498 53.5002 51.7498 49.9998C51.7498 46.4994 54.25 44.25 59.2498 44.25C63.7498 44.25 66.25 45.75 67.4998 49.5C67.75 50.25 68.5 50.7498 69.25 50.7498H73.2496C74.2498 50.7498 74.9998 49.9998 74.9998 49.0002V48.75C73.9996 43.2498 69.4996 39 63.7498 38.5002V32.5002C63.7498 31.5 62.9998 30.75 61.75 30.4998H58C56.9998 30.4998 56.2498 31.2498 55.9996 32.5002V38.25C48.4996 39.2502 43.75 44.25 43.75 50.5002C43.75 58.7502 48.7498 61.9998 59.2498 63.2502C66.25 64.5 68.5 66 68.5 70.0002C68.5 74.0004 64.9996 76.7502 60.25 76.7502C53.7496 76.7502 51.4996 73.9998 50.7496 70.2498C50.5 69.2502 49.75 68.7498 49 68.7498H44.7496C43.75 68.7498 43 69.4998 43 70.5V70.7502C43.9996 76.9998 47.9998 81.4998 56.2498 82.7502V88.7502C56.2498 89.7498 56.9998 90.4998 58.2496 90.75H61.9996C62.9998 90.75 63.7498 90 64 88.7502V82.7502C71.5 81.4998 76.4998 76.2498 76.4998 69.4998Z" fill="white"/>
<path fill-rule="evenodd" clip-rule="evenodd" d="M25.0012 47.7498C17.7508 67.0002 27.751 88.7502 47.251 95.7498C48.001 96.2502 48.751 97.2498 48.751 97.9998V101.5C48.751 102 48.751 102.25 48.5008 102.5C48.2512 103.5 47.251 104 46.2508 103.5C32.251 99 21.5008 88.2498 17.0008 74.25C9.50077 50.5002 22.501 25.2498 46.2508 17.7498C46.501 17.5002 47.0008 17.5002 47.251 17.5002C48.2512 17.7498 48.751 18.4998 48.751 19.5V22.9998C48.751 24.2502 48.2512 25.0002 47.251 25.5C37.0012 29.25 28.7512 37.2498 25.0012 47.7498ZM71.5012 18.75C71.7508 17.7498 72.751 17.25 73.7512 17.7498C87.5008 22.2498 98.5012 33 103.001 47.25C110.501 70.9998 97.501 96.2502 73.7512 103.75C73.501 104 73.0012 104 72.751 104C71.7508 103.75 71.251 103 71.251 102V98.5002C71.251 97.2498 71.7508 96.4998 72.751 96C83.0008 92.25 91.2508 84.2502 95.0008 73.7502C102.251 54.4998 92.251 32.7498 72.751 25.7502C72.001 25.2498 71.251 24.2502 71.251 23.25V19.7502C71.251 19.2498 71.251 19.0002 71.5012 18.75Z" fill="white"/>
</svg>
